<?xml version="1.0" encoding="utf-8"?>
<!-- Generator: Adobe Illustrator 25.2.3, SVG Export Plug-In . SVG Version: 6.00 Build 0)  -->
<svg version="1.1" id="Layer_1" xmlns="http://www.w3.org/2000/svg" xmlns:xlink="http://www.w3.org/1999/xlink" x="0px" y="0px"
	 viewBox="0 0 2895.8 2115" style="enable-background:new 0 0 2895.8 2115;" xml:space="preserve">
<style type="text/css">
	.st0{fill:#D0DBFC;}
	.st1{fill:#84C4E2;}
	.st2{fill:#AEE4F4;}
	.st3{fill:#4E9DC4;}
	.st4{fill:#F7AB61;}
	.st5{fill:#FFC68D;}
	.st6{fill:#FFE2CF;}
	.st7{fill:#9D99E5;}
	.st8{fill:#726AE4;}
	.st9{fill:#FFCDA4;}
	.st10{fill:#736BE5;}
	.st11{fill:#BDBDFF;}
	.st12{fill:#FFFFFF;}
	.st13{fill:#0065AA;}
	.st14{fill:#6F6FD8;}
	.st15{fill:#5DCEC1;}
	.st16{fill:#D5E1ED;}
	.st17{fill:#B8DDFF;}
	.st18{opacity:0.5;}
	.st19{fill:#8FA7D7;}
	.st20{fill:#38A595;}
	.st21{opacity:0.5;fill:#8FA7D7;}
	.st22{fill:#FFCCA9;}
	.st23{opacity:0.1;fill:#8FA7D7;}
	.st24{fill:#AE376D;}
	.st25{fill:#A1B5BF;}
	.st26{fill:#F0BA92;}
	.st27{opacity:0.6;}
	.st28{fill:#D88D64;}
	.st29{fill:#D3976E;}
	.st30{opacity:0.1;}
	.st31{fill:#0E3368;}
	.st32{fill:#383F47;}
	.st33{fill:#1A2026;}
	.st34{fill:#BCBCBC;}
	.st35{fill:#444444;}
	.st36{opacity:0.3;}
	.st37{fill:#635B53;}
	.st38{opacity:0.4;}
	.st39{fill:#D3D3D3;}
	.st40{fill:#A8A6A0;}
	.st41{fill:#BABABA;}
	.st42{fill:#AAA9A2;}
	.st43{fill:#2A445D;}
	.st44{fill:#1F384C;}
	.st45{clip-path:url(#SVGID_2_);fill:#FFFFFF;}
	.st46{clip-path:url(#SVGID_3_);fill:#FFFFFF;}
	.st47{fill:#210601;}
	.st48{fill:#302420;}
</style>
<g id="Background">
</g>
<path class="st0" d="M2534.4,1997.9c0,34.3-504.7,71.5-1109.4,71.5c-604.7,0-1098-30.9-1098-65.3S2534.4,1963.5,2534.4,1997.9z"/>
<image style="overflow:visible;" width="1727" height="1534" xlink:href="812AC23C.png"  transform="matrix(1 0 0 1 1122 469.3842)">
</image>
<image style="overflow:visible;" width="1533" height="1363" xlink:href="812AC23D.png"  transform="matrix(1 0 0 1 42 641.3842)">
</image>
<g>
	<path class="st1" d="M2069.1,774.7c0,0-46.6,19.3-110.5,62.5c-10.8,7.3-23.9,107.9-23.9,107.9s-10.5-87.7-16.7-82.9
		c-41.3,32.4-87.4,74.8-131.6,127.1c-5,5.9,49.6,73.9,44.7,80c-5.4,6.8-70.3-48.3-75.6-41.3c-65.4,86.7-236.2,324.6-260.9,455.1
		l174,71.8c206.5,20.6,273.8-49.7,299.4-102.2c4.5-9.3-173.7-33.6-173.7-33.6s195.7-12.5,199.8-21.4c30.5-65.6,62-139.5,83.9-205.5
		c3.3-9.9-202.9-1.3-200.1-10.8c1.2-4.2,211.7-26.7,212.9-30.7c8.7-31.2,14.4-59.5,15.7-82.8c0.4-8-161.2,2.2-161.2,2.2
		s159.9-36,162.2-57.4C2115.4,941.2,2095.2,861.3,2069.1,774.7z"/>
</g>
<g>
	<path class="st2" d="M1788.1,1371.1l152-322.6c-0.5-3.8-0.9-7.6-1.3-11.4c-1.5-13.1-2.9-26.3-4.4-39.4c-3.6-32.4-5.7-64.9-9.8-97.2
		c-4.9-38.7-6.6-38.2-6.6-38.2c4.8-2.3,8.5,24.6,10.3,34.3c2.8,15.2,4.3,28.7,6.7,44c4.7,30.4,9.3,60.8,12.9,91.4c0,0,0,0,0,0.1
		l121.2-257.3c0,0-61.7,151.4-118.6,283.4c0.4-0.1,0.8-0.3,1.2-0.4c4.4-1.7,107.8-6.1,155.8-46.3l-1.4,4.9
		c-47.3,46.8-156.9,53.2-160.9,53.8c-19.3,44.5-25.9,58.2-45.4,100.8c2.3,0.4,5.5-0.4,7.7-0.7c4.3-0.5,8.6-1.1,13-1.6
		c15.2-1.9,30.4-3.7,45.7-5.6c35.3-4.3,70.7-7.3,106.1-11c8.3-0.9,14-0.9,14-0.9s-34.9,7.5-57.9,11.4c-34.7,6-69.4,11.5-104.2,16.8
		c-4.9,0.7-9.7,1.5-14.6,2.2c-5.1,0.8-10.3,1.8-14.6-0.2C1847.7,1284,1804.9,1366.7,1788.1,1371.1z"/>
</g>
<g>
	<path class="st3" d="M1994.1,1397.7l-220.1,12.9l-2.4,11.5C1771.7,1422,1943.6,1408,1994.1,1397.7z"/>
</g>
<path class="st2" d="M1786.4,989.3l117.3,147l-13.4,27.9C1890.3,1164.2,1784.1,1005.4,1786.4,989.3z"/>
<g>
	<path class="st4" d="M543.7,599.9c0,0,57.7,30.4,135.1,93.4c13.1,10.6-8.6,235-8.6,235s50.5-205,57.9-198
		c51.1,48.1,107.6,110.6,159.8,186.4c3.4,4.9-40.3,71.2-36.9,76.3c82.8,124.2,200.2,220.6,218,406.1c0,0,12.2,113.5-0.3,106.1
		c-12.5-7.4-323.5,242.3-323.5,242.3s-41.6-67.1-91.1-154.1c-6.6-11.6,119.8-69.5,113-81.6c-4.8-8.5-142.6,28.8-147.4,20.1
		c-50-90.9-100.3-190.6-120.2-255.9c-2.5-8.3,131.4-7.8,129.1-16.4c-2.8-10.3-144.4-40.7-144.4-40.7c-16.7-71.1-27-154-23.6-247.1
		c0.4-10.3,180.3,26.8,180.3,26.8s-176.5-84.3-175.1-97.7C475.8,808.6,499.7,707.9,543.7,599.9z"/>
</g>
<g>
	<path class="st5" d="M543.7,599.9c0,0,57.7,30.4,135.1,93.4c13.1,10.6-8.6,235-8.6,235s50.5-205,57.9-198
		c51.1,48.1,107.6,110.6,159.8,186.4c3.5,5.1-23.5,47.9-20.1,53.1c82.7,124.1,183.4,244,201.1,429.2c0,0,12.2,113.5-0.3,106.1
		c-12.5-7.4-276.5-179.9-276.5-179.9L543.7,599.9z"/>
</g>
<g>
	<path class="st6" d="M543.7,599.9c0,0,185.2,592,205.2,648.9c5,14.1-256.4-27.4-264.9-30c0.5,0.9,261.4,85.2,269.8,44.1
		c48.8,137.3,59.8,128.5,80.9,136L543.7,599.9z"/>
</g>
<g>
	<path class="st6" d="M526.3,940.8c2.1,0.1,149.7,71.3,149.7,71.3l7.1,16.1L526.3,940.8z"/>
</g>
<g>
	<polygon class="st6" points="701.3,808.4 663.4,953.3 665.2,969.9 	"/>
</g>
<g>
	<path class="st7" d="M1050.3,1943.8c-40.7,38.7-177,18.9-280-21.7c-24-9.5-54-22.9-87.2-41.4c21.5-1.2,156.7-16.7,124-217.7
		c-1.5-8.9-110.2,104.8-126.6,216.3c-44.3-24.9-89.7-54.5-158-119.4c-15.8-15-67.8-74.6-97.7-122.4c20.2-9.8,111.4-60.5,162.5-194.9
		c3.2-8.4-156.2,42.9-166,189.1c-26.8-43.8-50.5-93.4-69.1-149.5c0.2-0.1,0.4-0.2,0.7-0.2c-0.6-1.6-1.1-3.1-1.5-4.8
		c-0.3-0.9-0.5-1.9-0.7-2.8c-0.1,0.8-0.2,1.6-0.2,2.4c-11.2-34.8-20.5-72.1-27.4-112.1c8.9-9.4,38.9-52.7,10-189.5
		c-1.8-8.4-47,63.5-18.4,171.4c6.7,45,16.5,86.8,28.6,125.6c-127.5-99.4-183.9,1.3-183.9,1.3c71.8,28.7,173.4,8.1,184.8,1.5
		c18.9,59.7,43.6,112.2,71.7,158.3c0.1,0.1,9.6,15.3,11.3,17.9c30.4,46.7,64.3,86.5,99.2,120.3c0,0.1,0,0.2-0.1,0.4c0,0,0.2,0,0.4,0
		c1.3,1.3,2.7,2.5,4,3.8c-152.2-33.5-247,28.2-247,28.2c113.5,72.9,234.1-2.1,254-21.6c38.1,35.3,77,63.6,113.4,86.1
		c7.3,3,14,7.3,20.2,12.2c0,0,0,0,0-0.1c37,21.3,70.7,36.5,97.1,47c75.9,29.9,145.6,42.8,198.2,42.8c41.7,0,72.7-8.1,87.5-22.2
		L1050.3,1943.8z"/>
</g>
<g>
	<g>
		<path class="st8" d="M671.2,1880.2c-108.5-46.3-216.9,21.1-216.9,21.1c106.3,61.6,192.2,6.7,216.7-17.6
			C675.6,1879.7,671.4,1880.4,671.2,1880.2z"/>
	</g>
	<g>
		<path class="st8" d="M491.4,1307.7c3.1-8.1-124.4,35.5-141,168.8c0.7,0.3,1.1,3.7,1.7,5.5C374.2,1472.2,444.3,1431.6,491.4,1307.7
			z"/>
	</g>
	<g>
		<path class="st8" d="M422.5,1643.8c-126-105.4-211-15.5-211-15.5c72.9,36.1,187.5,30.1,215.4,22.7c0,0-4.3-6.5-4.4-7.1
			C422.6,1643.8,422.6,1643.8,422.5,1643.8z"/>
	</g>
	<g>
		<path class="st8" d="M653,1553.8c-1.4-8.6-98.6,108.9-120.4,216.5c0.8-0.1,2,1,3.3,2.1C574.8,1766.4,681.9,1731.6,653,1553.8z"/>
	</g>
</g>
<g>
	<path class="st4" d="M1666.8,1621c33.2,31.1,143.4,14.2,226.5-19.2c19.4-7.8,43.6-18.9,70.3-34c-17.4-0.8-127-12.6-101.7-175.5
		c1.1-7.2,89.9,84.2,103.7,174.3c35.7-20.5,72.3-44.7,127.2-97.6c12.7-12.2,54.4-60.8,78.4-99.7c-16.4-7.8-90.5-48.3-132.7-156.9
		c-2.6-6.8,126.7,33.8,135.6,152.1c21.5-35.6,40.3-75.9,55-121.5c-0.2-0.1-0.4-0.1-0.5-0.2c0.5-1.3,0.9-2.6,1.2-3.9
		c0.2-0.8,0.4-1.5,0.5-2.3c0,0.6,0.1,1.3,0.2,1.9c8.9-28.3,16.2-58.5,21.5-90.9c-7.2-7.5-31.8-42.4-9.2-153.4
		c1.4-6.8,38.4,51.1,15.9,138.6c-5.2,36.5-12.8,70.4-22.4,101.9c102.6-81.3,148.9,0,148.9,0c-58,23.6-140.4,7.6-149.6,2.3
		c-15,48.4-34.6,91.1-57.1,128.6c-0.1,0.1-7.7,12.5-9,14.6c-24.4,38-51.5,70.4-79.6,98c0,0.1,0,0.2,0.1,0.3c0,0-0.1,0-0.4,0
		c-1.1,1-2.1,2.1-3.2,3.1c123-28,200.2,21.3,200.2,21.3c-91.4,59.7-189.6-0.3-205.8-16c-30.7,28.8-62,51.9-91.3,70.3
		c-5.9,2.5-11.3,6-16.3,10c0,0,0,0,0,0c-29.9,17.5-57,30-78.3,38.6c-61.3,24.7-117.6,35.5-160.2,35.9c-33.7,0.2-58.9-6.1-71-17.5
		L1666.8,1621z"/>
</g>
<g>
	<g>
		<path class="st9" d="M1975.9,1568.7c2.8-1.6,5.9-3.1,9.2-3.2c2.2,0,2.7-2.8,1.4-3.9c1.5-1.1,3-2.1,4.4-3.3
			c0.2-0.2,0.4-0.4,0.5-0.6c111.9-16.3,157.7,25.3,157.7,25.3c-85.7,50.5-155.6,6.6-175.5-13
			C1974.3,1569.6,1975.1,1569.2,1975.9,1568.7z"/>
	</g>
	<g>
		<path class="st9" d="M2115.6,1102.7c-2.5-6.5,101,28,115.1,135.9c-0.5,0.2-0.9,3-1.4,4.4
			C2211.4,1235.2,2154.4,1202.7,2115.6,1102.7z"/>
	</g>
	<g>
		<path class="st9" d="M2173.3,1374.4c101.4-86.1,170.7-13.8,170.7-13.8c-58.8,29.6-151.7,25.5-174.2,19.7
			C2169.8,1380.2,2173.2,1375,2173.3,1374.4C2173.3,1374.4,2173.3,1374.4,2173.3,1374.4z"/>
	</g>
	<g>
		<path class="st9" d="M1986.2,1302.9c1.1-7,80.5,87.6,98.7,174.5c-0.7-0.1-1.6,0.8-2.7,1.7
			C2050.7,1474.5,1963.8,1447,1986.2,1302.9z"/>
	</g>
</g>
<g>
	<g>
		<path class="st10" d="M2388.1,2002.1h-651.8c-40,0-72.5-32.5-72.5-72.5v-352c0-40,32.5-72.5,72.5-72.5h651.8
			c40,0,72.5,32.5,72.5,72.5v352C2460.5,1969.6,2428.1,2002.1,2388.1,2002.1z"/>
	</g>
</g>
<g>
	<g>
		<path class="st7" d="M2311.3,2004.1h-651.8c-40,0-72.5-32.5-72.5-72.5v-352c0-40,32.5-72.5,72.5-72.5h651.8
			c40,0,72.5,32.5,72.5,72.5v352C2383.7,1971.7,2351.3,2004.1,2311.3,2004.1z"/>
	</g>
</g>
<g>
	<g>
		<path class="st7" d="M2024.9,1649.2h-122.6c-78.3,0-142-63.7-142-142c0-78.3,63.7-142,142-142h122.6c78.3,0,142,63.7,142,142
			C2167,1585.5,2103.2,1649.2,2024.9,1649.2z M1902.4,1425.7c-44.9,0-81.5,36.6-81.5,81.5c0,44.9,36.6,81.5,81.5,81.5h122.6
			c44.9,0,81.5-36.6,81.5-81.5c0-44.9-36.6-81.5-81.5-81.5H1902.4z"/>
	</g>
</g>
<g>
	<g>
		<path class="st11" d="M1587,1606.2L1587,1606.2c0-55.8,45.3-101.1,101.1-101.1h633.1c55.8,0,65.9,40.1,62.5,101.1l0,0H1587z"/>
	</g>
</g>
<g>
	<g>
		<path class="st12" d="M2095,1754.8h-84.5v-71.1c0-13.9-11.3-25.1-25.1-25.1c-13.9,0-25.1,11.3-25.1,25.1v71.1h-84.5
			c-13.9,0-25.1,11.3-25.1,25.1v0c0,13.9,11.3,25.1,25.1,25.1h84.5v97.9c0,13.9,11.3,25.1,25.1,25.1c13.9,0,25.1-11.3,25.1-25.1
			v-97.9h84.5c13.9,0,25.1-11.3,25.1-25.1v0C2120.2,1766.1,2108.9,1754.8,2095,1754.8z"/>
	</g>
</g>
<path class="st13" d="M1632,2003.2H862.9c-75.5,0-136.6-61.2-136.6-136.6V171.7C726.2,96.2,787.4,35,862.9,35H1632
	c75.5,0,136.6,61.2,136.6,136.6v1694.9C1768.7,1942,1707.5,2003.2,1632,2003.2z"/>
<g>
	<defs>
		<path id="SVGID_7_" d="M1643.7,1962.2H854c-48,0-86.9-38.9-86.9-86.9v-1709c0-48,38.9-86.9,86.9-86.9h789.7
			c48,0,86.9,38.9,86.9,86.9v1709C1730.6,1923.3,1691.7,1962.2,1643.7,1962.2z"/>
	</defs>
	<clipPath id="SVGID_1_">
		<use xlink:href="#SVGID_7_"  style="overflow:visible;"/>
	</clipPath>
	<g style="clip-path:url(#SVGID_1_);">
		
			<image style="overflow:visible;" width="1151" height="1887" xlink:href="812AC23B.png"  transform="matrix(1 0 0 1 704 75.3842)">
		</image>
	</g>
</g>
<path class="st13" d="M1462.7,137.2h-424.1c-25.2,0-45.6-20.4-45.6-45.6V61.7h515.3v29.9C1508.3,116.8,1487.9,137.2,1462.7,137.2z"
	/>
<path class="st14" d="M2334,369.1C2319.6,229,2066.5,190.2,1824.1,219s-251.9,83.7-245.6,249.1c2.1,54.3,17,97.4,41.1,131.3
	c-14.9,50.8-74.7,61.3-66.4,69.3c42.7,41,118,3.4,136.1-6.7c117,68.7,302.4,58.6,436.3,39.8C2303.4,676.7,2349.7,522.7,2334,369.1z"
	/>
<path class="st12" d="M1849.8,458.1c0,14.2-11.5,25.7-25.7,25.7c-14.2,0-25.7-11.5-25.7-25.7c0-14.2,11.5-25.7,25.7-25.7
	C1838.3,432.4,1849.8,443.9,1849.8,458.1z"/>
<path class="st12" d="M1976.9,458.1c0,14.2-11.5,25.7-25.7,25.7s-25.7-11.5-25.7-25.7c0-14.2,11.5-25.7,25.7-25.7
	S1976.9,443.9,1976.9,458.1z"/>
<path class="st12" d="M2099.1,458.1c0,14.2-11.5,25.7-25.7,25.7c-14.2,0-25.7-11.5-25.7-25.7c0-14.2,11.5-25.7,25.7-25.7
	C2087.6,432.4,2099.1,443.9,2099.1,458.1z"/>
<path class="st15" d="M1166,841.5c2.6-4.1,101.1,45.3,211.7-19.3c110.7-64.7,46,616.1,46,616.1l-9,353.3l-12.6,170.6h-275.7
	l-56.6-537C1069.9,1425.2,1127.6,902.4,1166,841.5z"/>
<path class="st12" d="M1664,941.9c-45-38.7-252.4-117.4-252.4-117.4l-33.8,60.5c0,0,11,749.9,5.3,904.3l-0.1,172.9h253l1.3-390.5
	c73.2-18.6,129.4-49.4,160.3-83.2c35.1-38.4,43.5-60.1,43.5-111.1C1841.1,1326.4,1709,980.6,1664,941.9z"/>
<path class="st12" d="M1143.3,1501.2c2.4-3.9,3.7-6,3.7-6v-664c0,0-207.3,78.6-252.4,117.4c-45,38.7-176,396.8-177.2,447.8
	c-4.9,202.5,171.2,458,171.2,458s6-2.6,16.5-9.9c-3.4,47.2-9.3,117.7-9.3,117.7h274.8c0,0,0.9-209.8,0-219.4
	C1170,1737.1,1155.2,1606.4,1143.3,1501.2z"/>
<g>
	<g>
		<path class="st16" d="M1584.2,1320.5l-46.3,27.5c-1.1,0.6-2.4,0.6-3.5,0l-48.9-27.5c-1.1-0.6-1.8-1.8-1.8-3v-102.6
			c0-1.9,1.5-3.5,3.5-3.5h95.3c1.9,0,3.5,1.5,3.5,3.5v102.7C1585.9,1318.8,1585.3,1319.9,1584.2,1320.5z"/>
	</g>
</g>
<g>
	<g>
		<path class="st17" d="M1584.2,1320.5l-46.3,27.5c-1.1,0.6-2.4,0.6-3.5,0l-48.9-27.5c-1.1-0.6-1.8-1.8-1.8-3v-81.9
			c0-1.9,1.5-3.5,3.5-3.5h95.3c1.9,0,3.5,1.5,3.5,3.5v81.9C1585.9,1318.8,1585.3,1319.9,1584.2,1320.5z"/>
	</g>
</g>
<g class="st18">
	<g>
		<path class="st19" d="M1383.1,1796.1v-324.4V766.8c0,0,8.7,16,40.6,48.3c39.8,40.4,74,101.3,74,101.3l-71.9-13.9l93.4,94
			l-70.3,413.2l-49.7,7.4l31.5,100L1383.1,1796.1z"/>
	</g>
</g>
<g class="st18">
	<path class="st19" d="M1115.3,814.5c-39.8,40.4-74,101.3-74,101.3l71.9-13.9l-93.4,94l150.7,779.2l-14.7-1008.9
		C1155.8,766.2,1147.1,782.2,1115.3,814.5z"/>
</g>
<g>
	<g>
		<path class="st12" d="M1383.1,1753L1383.1,1753l-15.6-994.1c0,0,16.2,6.9,48,39.2c39.8,40.4,66.5,110.4,66.5,110.4l-71.9-13.9
			l93.4,94l-67,425.1l-34.3,7.9l25.1,50.4L1383.1,1753z"/>
	</g>
</g>
<g>
	<g>
		<path class="st12" d="M1170.5,1742.8V758.9c0,0-16.2,6.9-48,39.2c-39.8,40.4-66.5,110.4-66.5,110.4l71.9-13.9l-93.4,94
			L1170.5,1742.8z"/>
	</g>
</g>
<path class="st20" d="M1282.4,1823.1c-62.7,0-110.7-9.4-111.4-9.6l0-5.8c1.1,0.2,110.4,21.8,212.1-0.3v5.8
	C1348.6,1820.8,1314,1823.1,1282.4,1823.1z"/>
<g>
	<path class="st20" d="M1268.5,932.6c-56.7,0-97.3-19.8-98-20.1v-7c1,0.5,101.3,48.1,199.2-4.3l0.1,6.7
		C1334.1,927.1,1299.7,932.6,1268.5,932.6z"/>
</g>
<path class="st21" d="M808.6,1396.8c0,0,74.8,14.4,113.8,53.3C922.4,1450,825.4,1401.5,808.6,1396.8z"/>
<path class="st22" d="M1007,1730.3l15.7,19c0,0-31.6,77.3-66.6,118l-28.4-39.5C927.7,1827.8,971.4,1794.5,1007,1730.3z"/>
<path class="st21" d="M897.2,1396.8c1.8,3,26.9,26.9,35.3,50.3l-39.5-44.9L897.2,1396.8z"/>
<path class="st21" d="M976.8,1136.9c-0.2-3.6-23,297.7-32.8,337.2l75.7,231.6c0,0-40,90.4-114.8,138.9c0,0,47.9-7.2,123.3-111.3
	c0,0-37.7,107.8-91,153.3c0,0,83.8-49.7,108.4-200.6l-79-211.9C966.7,1474.1,980.4,1204,976.8,1136.9z"/>
<polygon class="st21" points="1637.3,1571.7 1600.8,1582.3 1606.4,1614.9 1637.3,1603 "/>
<path class="st21" d="M1628.5,1345.6L1628.5,1345.6l-27.7-227l8.6,234.2c-93,35.3-193.1,77.5-193.1,77.5s53.2-13.7,118.6-31.1
	c65.3-17.4,186.8-85.6,186.8-85.6C1696.9,1320.8,1663.8,1332.5,1628.5,1345.6z"/>
<path class="st23" d="M1757.1,1124.4c0,0,58.5,157.5,59.2,259.8c0.2,38-21.5,69.5-37.1,80.8c-152.4,110.8-340.3,114.7-340.3,114.7
	s-1.5,25.4-5.1,30.2c0,0,332.6-22,396.2-166.1c0,0,14.5-23,11.2-59C1834.9,1316.8,1797.1,1221.3,1757.1,1124.4z"/>
<path class="st23" d="M830.7,1066.5c2.3-6-94.8,241.3-93.9,330.3c1.8,186.9,139.8,422.6,168.2,447.8l-16.5,9.9
	c0,0-183.2-272.1-171.2-458C719.7,1359.7,724.2,1343.5,830.7,1066.5z"/>
<path class="st24" d="M1434.6,1608.4c10.8-109.6-20.7-177.1-17.1-178.7c35.6-16,124-50.8,195.2-78.4l3-161.4l-363.7-14.7l-8.3,537.3
	l362.4-14.8l2.2-117.2C1518.8,1601.3,1434.6,1608.4,1434.6,1608.4z"/>
<polygon class="st25" points="1493.4,1185 1493.6,1178.4 1394.9,1172.8 1394.8,1181 "/>
<path class="st25" d="M1407.5,1191.8c0,1.1-0.9,2.1-2.1,2.1c-1.1,0-2.1-0.9-2.1-2.1c0-1.1,0.9-2.1,2.1-2.1
	C1406.6,1189.8,1407.5,1190.7,1407.5,1191.8z"/>
<path class="st25" d="M1485.7,1195.1c0,0.7-0.6,1.3-1.3,1.3c-0.7,0-1.3-0.6-1.3-1.3s0.6-1.3,1.3-1.3
	C1485.1,1193.9,1485.7,1194.4,1485.7,1195.1z"/>
<g>
	<g>
		<path class="st26" d="M1428,629.4c-10.4,37.4-28.7,66-36.6,63.8c0,0,5.6-23.8,13.1-61.8c8.7-44.1,9.9-75.2,27.9-73.6
			C1440.6,558.5,1438.4,592,1428,629.4z"/>
	</g>
</g>
<g class="st27">
	<g>
		<path class="st28" d="M1414.1,613.9c-9.4,37.6-14.8,81.4-22.7,79.2c0,0,7.9-33.9,15.4-72c8.7-44.1,7.8-59.4,25.8-57.7
			C1432.6,563.5,1425.6,568.2,1414.1,613.9z"/>
	</g>
</g>
<g>
	<g>
		<path class="st26" d="M1111.3,629.4c10.4,37.4,27.6,66.2,35.5,64c0,0-8.4-30.8-13.5-63.2c-6.9-44.4-8.4-74.1-26.4-72.4
			C1098.7,558.5,1100.9,592,1111.3,629.4z"/>
	</g>
</g>
<g class="st27">
	<g>
		<path class="st28" d="M1119.6,609.9c9.4,37.6,19.3,85.7,27.2,83.5c0,0-8.4-38.7-15.9-76.7c-8.7-44.1-7.2-54.6-25.3-52.9
			C1105.6,563.8,1108.1,564.2,1119.6,609.9z"/>
	</g>
</g>
<g>
	<g>
		<path class="st26" d="M1368.8,846.4c0,0-13.7,36.1-99.9,36.1c-86.2,0-98.5-33.9-98.5-33.9V739h197L1368.8,846.4z"/>
	</g>
</g>
<g class="st27">
	<g>
		<path class="st28" d="M1367.6,766.8c-17.8,37.2-87.4,66.3-98.6,66.3c-11.2,0-70.3-22.4-98.5-65.7v-57.2h197L1367.6,766.8z"/>
	</g>
</g>
<g>
	<g>
		<path class="st22" d="M1391.4,693.1C1358.6,801,1269,802.8,1269,802.8s-94.7-0.3-122.9-112.2c-18.7-73.9-63.6-187.1-9.7-270.9
			c30.5-47.5,252-66.4,278.1,0C1440.5,486.1,1410.7,629.9,1391.4,693.1z"/>
	</g>
</g>
<g>
	<path class="st12" d="M1317.1,689.1c3.6,3-7.6,42-48.1,42.5c-34.4,0.4-51.6-35-48.5-40.3c3.9-6.5,17.6-2.1,47.1-2.1
		C1297.2,689.2,1313.2,685.8,1317.1,689.1z"/>
	<path class="st29" d="M1268.6,733.6c-22,0-38.1-14.3-45.9-27.9c-3.1-5.4-5.8-12.3-3.9-15.5c3.1-5.3,10.5-4.9,23.9-4
		c6.6,0.4,14.9,0.9,25,0.9c12.1,0,21.8-0.6,29.5-1c12.2-0.7,18.3-1.1,21.2,1.4l0,0c2.8,2.3,0.6,9.4-0.4,12.3
		c-2,5.6-13.7,33.3-49,33.7C1268.9,733.6,1268.7,733.6,1268.6,733.6z M1231.3,689.8c-4.8,0-7.9,0.6-9.1,2.6
		c-0.4,0.9,0.4,6.1,5.2,13.5c3.6,5.6,17.2,23.8,41.1,23.8c0.2,0,0.3,0,0.5,0c23.4-0.2,35.6-13.9,40.7-22c5.1-8.1,6.5-15.4,5.9-17.1
		c-2-1.3-9.2-0.9-18.3-0.3c-7.8,0.5-17.6,1-29.8,1c-10.2,0-18.6-0.5-25.3-0.9C1238,690,1234.3,689.8,1231.3,689.8z"/>
</g>
<g>
	<path class="st28" d="M1269.1,656.2c-4.8-3.4-12.1-11.1-7.8-23.7c3.7-10.9,4.2-31.9,4.2-32.1l4,0.1c0,0.9-0.5,21.8-4.4,33.3
		c-3.3,9.7,1.7,15.8,6.4,19.2L1269.1,656.2z"/>
</g>
<path class="st22" d="M1424.6,1460.2l-37.1,5.6c-47.4,4.1-65-32.4-106.8-27c-41.9,5.4-36.9,22-36.9,22
	c-27.8,0.7-20.4,39.2-20.4,39.2c-13.1,19.5,0.5,42.1,0.5,42.1c-9.6,13.5,3.2,34,3.2,34c3.6,22.3,30.6,40.6,59.6,43.7
	c1,0.1,2,0.2,3,0.2c1,0.1,2.1,0.2,3.1,0.2c1.1,0,2.2,0,3.3,0c1.5,0,3.1-0.1,4.6-0.2c0.1,0,0.2,0,0.3,0l0,0c0.1,0,0.2,0,0.3,0
	c1.3-0.1,2.6-0.2,3.9-0.4c35-4.8,131.6-43.9,131.6-43.9C1438.1,1500.4,1424.6,1460.2,1424.6,1460.2z"/>
<path class="st28" d="M1243.8,1460.8c0,0,24.1,4.7,37.1,5.6c13,0.9,43.2,5.9,50.3,7.6c0,0-39.1-3.3-50.6-4
	C1271.8,1469.5,1240.1,1461.2,1243.8,1460.8z"/>
<path class="st28" d="M1251.3,1510.7c0,0-17.7-7.2-22.8-14.3c-5.2-7-5.4-15-5.5-14.5c-1.6,6.8,0.4,18.1,0.4,18.1L1251.3,1510.7z"/>
<path class="st28" d="M1252,1552.6c0,0-16.8-7.4-23.6-12.9c-7.7-6.1-10.4-15.5-10.4-15c0.9,9.2,6,17.2,6,17.2L1252,1552.6z"/>
<path class="st28" d="M1255.2,1586.7c0,0-16.8-7.4-23.6-12.9c-7.7-6.1-11.1-16.6-11-16.1c0.9,9.2,6.7,18.3,6.7,18.3L1255.2,1586.7z"
	/>
<path class="st28" d="M1247.2,1451c0,0-4.2,9.8,3.4,11.1l1.2,1.8l-8.2-3C1243.8,1460.8,1243,1455.2,1247.2,1451z"/>
<g class="st30">
	<g>
		<g>
			<path class="st31" d="M1114.3,1004.4l1.8-107.6l-9,1.7l-1.8,106.5c-48.7,8.3-58.5,94.9-60.2,205.3c0,0,0,0,0,0.1l-0.1,6.2
				c0,22.5,12,28.2,27.3,30.5c5.6,0.9,11.4,1.2,16.9,1.4c1.4,3.2,4.6,5.5,8.4,5.5c5.1,0,9.2-4.1,9.2-9.2v-7.5c0-5.1-4.1-9.2-9.2-9.2
				c-4.6,0-8.3,3.5-8.9,7.9c-12.2-0.6-27.3-3.2-32.2-12.3c-4.8-8.8-2-27.5-1.6-40.1c3.2-96.5,13.7-169.9,58.5-169.9
				c44.7,0,65.6,73.1,68.9,169.5c0.4,12.1,2.5,29.8-2,38.9c-4.1,8.2-15.1,11.8-26.1,13.2c-1.2-4.3-5.4-7.3-9.9-6.7
				c-5,0.6-8.6,5.2-8,10.2l0.9,7.5c0.6,5,5.2,8.6,10.2,8c3.8-0.5,6.8-3.2,7.8-6.7c17.5-2.4,37.4-10.2,36.8-33.2l-0.1-9
				c0-0.1,0.1-0.3,0.1-0.4C1189.7,1092.1,1167.7,1005.5,1114.3,1004.4z"/>
		</g>
	</g>
	<g>
		<g>
			<path class="st31" d="M1550.8,1091.4c-9.1-213.2-108-261.6-112.2-263.6c0,0,5.7,4.5,30.5,38.9c25.8,35.8,65.9,100.2,71.3,225
				c-21.3,3-37.8,21.3-37.8,43.4c0,24.3,19.7,43.9,43.9,43.9c24.3,0,43.9-19.7,43.9-43.9C1590.5,1112.3,1573.1,1093.5,1550.8,1091.4
				z"/>
		</g>
	</g>
	<polygon class="st31" points="1607.9,1580.4 1606.1,1698.5 1277.5,1711.1 1277.5,1711.1 1277,1752.6 1628.6,1737.7 1628.6,1575.3 	
		"/>
</g>
<g>
	<g>
		<path class="st32" d="M1179.5,1193.8c-2.2-113.6-19.2-199.8-73.5-199.8c-55.1,0-71.6,89-73.4,205.2c0,0,0,0,0,0.1l-0.1,6.2
			c0,22.5,12,28.2,27.3,30.5c5.6,0.9,11.4,1.2,16.9,1.4c1.4,3.2,4.6,5.5,8.4,5.5c5.1,0,9.2-4.1,9.2-9.2v-7.5c0-5.1-4.1-9.2-9.2-9.2
			c-4.6,0-8.3,3.5-8.9,7.9c-12.2-0.6-27.3-3.2-32.2-12.3c-4.8-8.8-2-27.5-1.6-40.1c3.2-96.5,18.9-169.1,63.7-169.1
			c44.7,0,60.4,72.4,63.7,168.7c0.4,12.1,2.5,29.8-2,38.9c-4.1,8.2-15.1,11.8-26.1,13.2c-1.2-4.3-5.4-7.3-9.9-6.7
			c-5,0.6-8.6,5.2-8,10.2l0.9,7.5c0.6,5,5.2,8.6,10.2,8c3.8-0.5,6.8-3.2,7.8-6.7c17.5-2.4,37.4-10.2,36.8-33.2l-0.1-9
			C1179.4,1194.1,1179.4,1193.9,1179.5,1193.8z"/>
	</g>
</g>
<g>
	<g>
		<polygon class="st32" points="1107,998.7 1098,998.7 1098,900.3 1107,898.6 		"/>
	</g>
</g>
<g>
	<g>
		<path class="st32" d="M1517.7,1066.5c-4.7-127.7-45.4-193.1-71.5-229.3c-24.8-34.3-30.5-38.9-30.5-38.9
			c4.3,2,104.5,51,112.4,267.8L1517.7,1066.5z"/>
	</g>
</g>
<g>
	<g>
		<path class="st33" d="M1523.5,1068.9c-6.9-132.8-38.7-190.9-64.8-227.1c-24.8-34.3-43.2-43.7-43.2-43.7
			c4.3,2,104.7,55,112.6,271.9L1523.5,1068.9z"/>
	</g>
</g>
<g>
	<g>
		<path class="st34" d="M1567.5,1105.5c0,24.3-19.7,43.9-43.9,43.9s-43.9-19.7-43.9-43.9c0-24.3,19.7-43.9,43.9-43.9
			S1567.5,1081.3,1567.5,1105.5z"/>
	</g>
	<g>
		<path class="st35" d="M1523.6,1150.7c-24.9,0-45.2-20.3-45.2-45.2c0-24.9,20.3-45.2,45.2-45.2c24.9,0,45.2,20.3,45.2,45.2
			C1568.8,1130.4,1548.5,1150.7,1523.6,1150.7z M1523.6,1062.9c-23.5,0-42.6,19.1-42.6,42.6c0,23.5,19.1,42.6,42.6,42.6
			c23.5,0,42.6-19.1,42.6-42.6C1566.3,1082,1547.1,1062.9,1523.6,1062.9z"/>
	</g>
</g>
<g class="st36">
	<g>
		<path class="st12" d="M1545.4,1145.3l-11.1-23.3l7.8-21.5l24.2-10.4C1566.4,1090.1,1580.5,1121.1,1545.4,1145.3L1545.4,1145.3z"/>
	</g>
</g>
<g>
	<g>
		<path class="st37" d="M1543.3,1108.7c0,11.5-8.8,20.7-19.7,20.7c-10.9,0-19.7-9.3-19.7-20.7s8.8-20.7,19.7-20.7
			C1534.5,1088,1543.3,1097.3,1543.3,1108.7z"/>
	</g>
</g>
<g class="st38">
	<g>
		<path class="st12" d="M1516.7,1060.1l2.4,26.6l-14.8,17.5l-26.3,1.4C1478,1105.5,1475.4,1070.6,1516.7,1060.1L1516.7,1060.1z"/>
	</g>
</g>
<g>
	<g>
		<path class="st39" d="M1541.2,1105.5c0,9.7-7.9,17.5-17.5,17.5c-9.7,0-17.5-7.9-17.5-17.5c0-9.7,7.9-17.5,17.5-17.5
			C1533.3,1088,1541.2,1095.8,1541.2,1105.5z"/>
	</g>
	<g>
		<path class="st40" d="M1523.6,1124.4c-10.4,0-18.8-8.4-18.8-18.8c0-10.4,8.4-18.8,18.8-18.8c10.4,0,18.8,8.4,18.8,18.8
			C1542.4,1115.9,1534,1124.4,1523.6,1124.4z M1523.6,1089.3c-9,0-16.3,7.3-16.3,16.3c0,9,7.3,16.3,16.3,16.3
			c9,0,16.3-7.3,16.3-16.3C1539.9,1096.6,1532.6,1089.3,1523.6,1089.3z"/>
	</g>
</g>
<g>
	<g>
		<path class="st41" d="M1530.5,1107.6c0,3.8-3.1,6.9-6.9,6.9c-3.8,0-6.9-3.1-6.9-6.9c0-3.8,3.1-6.9,6.9-6.9
			C1527.4,1100.7,1530.5,1103.8,1530.5,1107.6z"/>
	</g>
</g>
<g>
	<g>
		<circle class="st12" cx="1523.6" cy="1105.5" r="6.9"/>
	</g>
</g>
<g>
	<g>
		<path class="st42" d="M1084,1238.6h-1.9c-1.6,0-2.8-1.3-2.8-2.8v-12.1c0-1.6,1.3-2.8,2.8-2.8h1.9c1.6,0,2.8,1.3,2.8,2.8v12.1
			C1086.8,1237.3,1085.6,1238.6,1084,1238.6z"/>
	</g>
</g>
<g>
	<g>
		<path class="st42" d="M1135.5,1238.4l-1.9,0.2c-1.6,0.1-2.9-1-3.1-2.6l-1.1-12.1c-0.1-1.6,1-2.9,2.5-3.1l1.9-0.2
			c1.6-0.1,2.9,1,3.1,2.5l1.1,12.1C1138.2,1236.9,1137.1,1238.3,1135.5,1238.4z"/>
	</g>
</g>
<g class="st38">
	<g>
		<path class="st12" d="M1519.1,1090.5c-10.2,3.4-10.8,12.7-10.8,12.7l9.9,0.7l2.6-2.6L1519.1,1090.5z"/>
	</g>
</g>
<g class="st38">
	<g>
		<path class="st12" d="M1533,1118.4c8.4-6.7,5.8-15.7,5.8-15.7l-9.5,2.7l-1.5,3.3L1533,1118.4z"/>
	</g>
</g>
<g>
	<g>
		<path class="st43" d="M1126.2,618.2c0,0-18.9-75.1-22.3-113c-3.4-37.9-7.4-88.8,35.4-106.1c42.7-17.3,29.6,35.6,29.6,35.6
			s-33.8,22.7-40.5,79.6C1124.6,545.1,1126.2,618.2,1126.2,618.2z"/>
	</g>
</g>
<g>
	<g>
		<path class="st43" d="M1410.1,617c0,0,21-73.9,24.4-111.8c3.4-37.9,7.4-88.8-35.4-106.1c-42.7-17.3-29.6,35.6-29.6,35.6
			s33.8,22.7,40.5,79.6C1413.8,545.1,1410.1,617,1410.1,617z"/>
	</g>
</g>
<g>
	<g>
		<path class="st43" d="M1375.2,452.8c0,0-52,8.3-86.9-8.1c-10.2-4.8-59.8,16.3-82.6,12c-43.6-8.2-62.8-43.6-63.6-47.3
			c-2.5-10.7-12.9-25.9,18.6-49.5c43.6-32.7,97.4-24.8,106.4-34.3c9-9.6,18.1-15.4,35.5-13.7c46.7,4.7,49,32.1,75.3,36.2
			c34.2,5.3,45.7,19.1,48,47.9C1430.1,450.6,1375.2,452.8,1375.2,452.8z"/>
	</g>
</g>
<g>
	<g>
		<path class="st44" d="M1276.1,318.3c0,0-14.6,10.5-51.4,53.3c-36.8,42.8-55.9,40.2-60.1,40.9c0,0,31.7,5.5,65.3-38.7
			C1263.5,329.7,1276.1,318.3,1276.1,318.3z"/>
	</g>
</g>
<g>
	<g>
		<path class="st44" d="M1333.8,451.4c0,0,61.4,7.3,88.1-24.8c0,0-5.6,33.5-86.7,25.4L1333.8,451.4z"/>
	</g>
</g>
<g>
	<g>
		<path class="st44" d="M1232.9,452.3c-72.3,10.1-93.1-49.6-92.7-48.5c11.4,36.2,40.2,50.2,61.2,55.6c6.4,1.7,12.6,2.8,18.8,3.2
			c3.4,0.3,5.5,0.3,5.5,0.3s0.1,0,0.1,0c69.1,0.6,125.1-72.5,125.1-72.5C1304.1,430.7,1262.4,446.5,1232.9,452.3z"/>
	</g>
</g>
<g>
	<g>
		<defs>
			<path id="SVGID_9_" d="M1237.4,563.9c11.9,11.9,11.9,31.3,0,43.3c-11.9,11.9-31.3,11.9-43.3,0c-11.9-11.9-11.9-31.3,0-43.3
				C1206.1,552,1225.4,552,1237.4,563.9z"/>
		</defs>
		<clipPath id="SVGID_2_">
			<use xlink:href="#SVGID_9_"  style="overflow:visible;"/>
		</clipPath>
		<polygon class="st45" points="1225.4,619.1 1249.3,595.2 1249.3,619.1 		"/>
		<polygon class="st45" points="1194.7,619.1 1182.2,606.6 1182.2,575.9 1206.1,552 1236.8,552 1249.3,564.5 1249.3,595.2 
			1225.4,619.1 		"/>
		<polygon class="st45" points="1206.1,552 1182.2,575.9 1182.2,552 		"/>
	</g>
</g>
<g>
	<g>
		<defs>
			<circle id="SVGID_11_" cx="1324.8" cy="587.7" r="30.6"/>
		</defs>
		<clipPath id="SVGID_3_">
			<use xlink:href="#SVGID_11_"  style="overflow:visible;"/>
		</clipPath>
		<polygon class="st46" points="1334.5,621.2 1358.4,597.3 1358.4,621.2 		"/>
		<polygon class="st46" points="1303.8,621.2 1291.3,608.7 1291.3,578 1315.1,554.1 1345.9,554.1 1358.4,566.6 1358.4,597.3 
			1334.5,621.2 		"/>
		<polygon class="st46" points="1315.1,554.1 1291.3,578 1291.3,554.1 		"/>
	</g>
</g>
<g>
	<g>
		<path class="st43" d="M1356.3,542.8c-8.8-6.1-18.9-8.8-29.7-7.2c-4.6,0.7-8.3-3.6-7.3-8.1l0,0c0.5-2.2,2.1-4.1,4.3-4.8
			c14.9-4.6,29.9-2.2,41.3,9.7c1.5,1.6,2,3.9,1.5,6l-0.1,0.4C1365.4,543.3,1360.1,545.4,1356.3,542.8z"/>
	</g>
</g>
<g>
	<g>
		<g>
			<ellipse class="st47" cx="1324.9" cy="587.3" rx="7.7" ry="9.9"/>
		</g>
	</g>
	<g>
		<g>
			<path class="st47" d="M1215.8,576.6c-4.3,0-7.7,4.4-7.7,9.9c0,5.4,3.5,9.9,7.7,9.9c4.3,0,7.7-4.4,7.7-9.9
				C1223.5,581.1,1220,576.6,1215.8,576.6z"/>
		</g>
	</g>
</g>
<g>
	<g>
		<path class="st48" d="M1355.8,577.3c-4.3-13.1-16.5-22.7-31-22.7c-16.3,0-29.8,12-32.2,27.7c0,0,0,0,0,0
			c-5.7-6.4-13.9-10.6-23.2-10.6c-8.4,0-16,3.4-21.6,8.9c-2.8-15.2-16.1-26.7-32.1-26.7c-14.5,0-26.7,9.6-31,22.7
			c-54.3-19.2-67.7-21.8-71.3-21.1c-1.1,0.2-2,1.8-2.2,2.7l2.8,1.1c0,0,0.5-0.7,0.6-0.7c4.7-0.5,38.5,10.4,69.1,21.3
			c-0.5,2.2-0.7,4.4-0.7,6.7c0,18,14.7,32.7,32.7,32.7c12.1,0,22.6-6.7,28.2-16.5c1-0.1,2-0.5,2.8-0.9c0.9-0.5,1.8-1.1,2.5-1.9
			c1.4-1.5,2.3-3.5,2.6-5.5c0.7-5.1-0.5-8.8-1.9-10.9c5-5.1,11.9-8.3,19.5-8.3c8.4,0,15.8,3.8,20.8,9.7c-1.2,2.2-2.1,5.7-1.5,10.3
			c0.3,2,1.2,4,2.6,5.5c0.7,0.8,1.6,1.4,2.5,1.9c0.8,0.4,1.8,0.8,2.8,0.9c5.7,9.8,16.1,16.5,28.2,16.5c18,0,32.7-14.7,32.7-32.7
			c0-2.3-0.3-4.6-0.7-6.7c31.1-11,64.8-22.2,68.6-21.3c-0.1,0,3.5-1.4,3.5-1.4C1427.9,555.6,1426.4,552.3,1355.8,577.3z
			 M1215.8,615.7c-16.1,0-29.2-13.1-29.2-29.2c0-16.1,13.1-29.2,29.2-29.2c16.1,0,29.2,13.1,29.2,29.2
			C1245,602.6,1231.9,615.7,1215.8,615.7z M1248.3,596c-0.3,0.7-0.8,1.4-1.4,1.9c-0.2,0.2-0.5,0.3-0.8,0.5c1.3-3.4,2.1-7.1,2.2-10.9
			c0.3,0.6,0.6,1.2,0.7,1.9C1249.4,591.5,1249.1,593.9,1248.3,596z M1293.7,598.7c-0.6-0.5-1.1-1.2-1.4-1.9c-0.8-2.1-1-4.5-0.7-6.6
			c0.1-0.7,0.4-1.3,0.7-1.9c0.1,3.8,0.9,7.5,2.2,10.9C1294.2,599,1293.9,598.9,1293.7,598.7z M1324.9,616.5
			c-16.1,0-29.2-13.1-29.2-29.2c0-16.1,13.1-29.2,29.2-29.2c16.1,0,29.2,13.1,29.2,29.2C1354.1,603.4,1341,616.5,1324.9,616.5z"/>
	</g>
</g>
<g>
	<g>
		<path class="st43" d="M1184.3,542c8.8-6.1,18.9-8.8,29.7-7.2c4.6,0.7,8.3-3.6,7.3-8.1l0,0c-0.5-2.2-2.1-4.1-4.3-4.8
			c-14.9-4.6-29.9-2.2-41.3,9.7c-1.5,1.6-2,3.9-1.5,6l0.1,0.4C1175.3,542.5,1180.5,544.6,1184.3,542z"/>
	</g>
</g>
<g>
	<g>
		<path class="st33" d="M1041.2,1198c0,0-8.5-173.4,50-195.9c13.4-5.1,25.9-2,35.1,2.8c31,16.3,38.7,75.7,41.1,102.6
			c3.1,34.9,7.8,85.7,1.7,99.9c0,0,2.2-80.6-11.3-139.5c-13.5-58.8-39-65.3-55.3-64.4c-16.3,0.9-35.2,19.2-45.8,54.8
			C1046.2,1094,1041.2,1198,1041.2,1198z"/>
	</g>
</g>
<g>
	<g>
		<path class="st33" d="M1032.8,1210.8c0-0.6,4.1,15.3,19.6,18.9c15.6,3.6,23.7-4.8,23.7-4.8s-1.1,10,0.6,12.5
			C1076.7,1237.4,1034.2,1241.9,1032.8,1210.8z"/>
	</g>
</g>
<g>
	<g>
		<path class="st33" d="M1179.4,1199c0-0.4,0.6,7.1-2.5,13.3c-5.4,10.9-10.4,11.4-16.1,14.4c-14.1,7.5-19.1-2.5-19.1-2.5
			s1.9,9.4,0.9,12.2C1142.7,1236.4,1182.6,1235.2,1179.4,1199z"/>
	</g>
</g>
<g>
	<g>
		<polygon class="st33" points="1098,900.3 1107,898.6 1106.5,903.2 1098,904.8 		"/>
	</g>
</g>
</svg>
